<svg xmlns="http://www.w3.org/2000/svg" viewBox="0 0 640 732"><style>
@keyframes igsljcfxm5cbdv2zsvum1kxb_t { 0% { transform: translate(0px,70px); } 37.5% { transform: translate(0px,70px); } 100% { transform: translate(0px,70px); } }
@keyframes zcbeahmsp1gq12qyetcr1ecn_t { 0% { transform: translate(0px,0px); animation-timing-function: cubic-bezier(.8,0,.2,.8); } 37.5% { transform: translate(1.9px,-0.2px); animation-timing-function: cubic-bezier(.8,0,.2,.8); } 100% { transform: translate(0px,0px); } }
@keyframes zcbeahmsp1gq12qyetcr1ecn_d { 0% { d: path('M294.5,591.1C300.5,590.6,306.5,590.7,312.5,591C312.7,592,313.5,592.5,314.2,593.1C320.7,599.5,327.3,605.8,333.8,612.3C335.3,613.8,336.3,613.9,337.8,612.3C342.2,607.9,346.5,603.4,351.2,599.2C354,596.7,356.9,594.2,359.1,591C365.1,590.7,371.1,590.6,377.1,591C374.4,595.9,370.2,599.5,366.3,603.4C356.6,613,346.7,622.4,337,632C336.1,632.9,335.6,633,334.7,632C323.4,620.8,312,609.8,300.6,598.6C298.2,596.4,296.2,593.9,294.5,591.1Z'); animation-timing-function: cubic-bezier(.8,0,.2,.8); } 37.5% { d: path('M300.7,591.2C305.5,590.6,310.3,590.7,315.2,591C315.3,592.2,316,592.8,316.5,593.5C321.8,601,327.1,608.4,332.3,616C333.5,617.8,334.3,617.9,335.5,616C339,610.9,342.5,605.6,346.3,600.7C348.5,597.7,350.9,594.8,352.6,591C357.5,590.7,362.3,590.6,367.1,591C364.9,596.8,361.6,601,358.4,605.6C350.6,616.9,342.7,627.9,334.9,639.2C334.1,640.2,333.7,640.3,333,639.2C323.9,626,314.8,613.1,305.6,600C303.7,597.4,302.1,594.4,300.7,591.2Z'); animation-timing-function: cubic-bezier(.8,0,.2,.8); } 100% { d: path('M294.5,591.1C300.5,590.6,306.5,590.7,312.5,591C312.7,592,313.5,592.5,314.2,593.1C320.7,599.5,327.3,605.8,333.8,612.3C335.3,613.8,336.3,613.9,337.8,612.3C342.2,607.9,346.5,603.4,351.2,599.2C354,596.7,356.9,594.2,359.1,591C365.1,590.7,371.1,590.6,377.1,591C374.4,595.9,370.2,599.5,366.3,603.4C356.6,613,346.7,622.4,337,632C336.1,632.9,335.6,633,334.7,632C323.4,620.8,312,609.8,300.6,598.6C298.2,596.4,296.2,593.9,294.5,591.1Z'); } }
@keyframes abvv0ae2tbm8bu3cex0qomqn_t { 0% { transform: translate(0px,0px); animation-timing-function: cubic-bezier(.8,0,.2,.8); } 37.5% { transform: translate(2.3px,0px); animation-timing-function: cubic-bezier(.8,0,.2,.8); } 100% { transform: translate(0px,0px); } }
@keyframes abvv0ae2tbm8bu3cex0qomqn_d { 0% { d: path('M359.1,591C356.9,594.2,354,596.7,351.2,599.2C346.5,603.4,342.2,607.9,337.8,612.3C336.2,613.9,335.3,613.8,333.8,612.3C327.3,605.8,320.7,599.5,314.2,593.1C313.6,592.5,312.7,592,312.5,591C317.2,590.7,321.9,590.7,326.6,591C328.9,594.4,332.2,596.8,334.9,599.7C335.4,600.3,336.1,600.3,336.7,599.7C339.5,596.8,342.7,594.3,345,591C349.7,590.7,354.4,590.7,359.1,591Z'); animation-timing-function: cubic-bezier(.8,0,.2,.8); } 37.5% { d: path('M354.5,591.1C352.5,595.7,349.9,599.3,347.4,602.9C343.2,609,339.3,615.4,335.3,621.8C333.9,624.1,333.1,623.9,331.7,621.8C325.8,612.4,319.9,603.3,314,594.1C313.5,593.3,312.7,592.5,312.5,591.1C316.7,590.7,321,590.7,325.2,591.1C327.3,596,330.3,599.5,332.7,603.6C333.2,604.5,333.8,604.5,334.3,603.6C336.9,599.5,339.7,595.9,341.8,591.1C346.1,590.7,350.3,590.7,354.5,591.1Z'); animation-timing-function: cubic-bezier(.8,0,.2,.8); } 100% { d: path('M359.1,591C356.9,594.2,354,596.7,351.2,599.2C346.5,603.4,342.2,607.9,337.8,612.3C336.2,613.9,335.3,613.8,333.8,612.3C327.3,605.8,320.7,599.5,314.2,593.1C313.6,592.5,312.7,592,312.5,591C317.2,590.7,321.9,590.7,326.6,591C328.9,594.4,332.2,596.8,334.9,599.7C335.4,600.3,336.1,600.3,336.7,599.7C339.5,596.8,342.7,594.3,345,591C349.7,590.7,354.4,590.7,359.1,591Z'); } }
@keyframes ar2cuwok667k16kypqyr0whj_d { 0% { d: path('M345,591C342.7,594.4,339.4,596.8,336.7,599.7C336.2,600.3,335.5,600.3,334.9,599.7C332.1,596.8,328.9,594.3,326.6,591C332.7,590.8,338.9,590.8,345,591Z'); animation-timing-function: cubic-bezier(.8,0,.2,.8); } 37.5% { d: path('M345,591.1C342.7,597.1,339.4,601.3,336.7,606.4C336.2,607.4,335.5,607.4,334.9,606.4C332.1,601.3,328.9,596.9,326.6,591.1C332.7,590.8,338.9,590.8,345,591.1Z'); animation-timing-function: cubic-bezier(.8,0,.2,.8); } 100% { d: path('M345,591C342.7,594.4,339.4,596.8,336.7,599.7C336.2,600.3,335.5,600.3,334.9,599.7C332.1,596.8,328.9,594.3,326.6,591C332.7,590.8,338.9,590.8,345,591Z'); } }
@keyframes wiu2e031vz5t4s374tmfcuih_t { 0% { transform: translate(140.8px,22.3px); } 100% { transform: translate(140.8px,22.3px); } }
@keyframes txiz579m25k480q2f06kfoox_t { 0% { transform: translate(141px,19.5px); } 100% { transform: translate(141px,19.5px); } }
</style><path class="st0" d="M542 567l21 164.1h73.4Z" fill="#fff"/><g transform="translate(330.2,390.1) translate(-330.2,-320.1)" style="animation: .8s linear infinite both igsljcfxm5cbdv2zsvum1kxb_t;"><g><path class="st1" d="M294.5 591.1c-6.2-0.4-12.1-1.6-17.4-5.3c-9.7-6.9-13.8-19.5-9.3-30.5c.9-2.1 .2-2.6-1.6-3.1c-29.3-8.5-56-22.1-78.6-42.9c-18.6-17.1-32.5-37.3-39.9-61.7c-4.1-13.3-5.2-26.9-5-40.7c.2-13.1 0-26.1 0-39.2c-1.2-0.3-1.5 .7-2.1 1.2c-14.6 15.5-23.5 33.7-26.8 54.7c-0.4 2.3-0.2 4.1 1.8 6c7.7 7.2 9.6 16.9 5.7 26c-4 9.1-13.4 14.8-23.7 14.3c-9.8-0.5-18.1-7.3-21.5-16.4c-3.5-9.2 1.4-20.7 9-25.9c1.4-1 2-2.1 2.2-3.8c5-37.4 23.1-66.8 53.5-88.8c1.7-1.3 1.9-2.7 1.9-4.5c0-38.2 0-76.5 .1-114.7c0-23.8 7.2-45.5 20-65.4c17.5-27.1 41.9-46.1 70.7-59.9c8-3.8 16.2-7 24.5-9.8c.5-0.2 1.2-0.2 1.5-1c-10.4-4.7-20.4-10.2-29.7-16.7c-4.8-3.3-9.4-6.9-13.9-10.6c-1.4-1.1-1.4-1.8 0-3c16.2-14 34.3-24.6 54.4-31.8c15.5-5.5 31.5-8.7 47.8-9.7c17.6-1.1 35.1 .7 52.2 5.1c26.1 6.7 49.4 18.6 70 35.9c2.4 2 2.4 2 .2 3.9c-11.5 9.9-24.1 18.1-37.7 24.6c-1 .5-2 .8-2.9 1.8c4.7 1.7 9.3 3.2 13.8 4.9c29.6 11.3 55.5 28.1 75.9 52.6c16 19.2 26.1 41.1 29.3 65.9c.6 4.9 .6 9.8 .6 14.7c0 32.9 .1 65.8 .1 98.7c0 2.1 .6 3.5 2.3 4.8c20.7 15.8 35.6 36 44.2 60.6c3.5 10.2 5.6 20.7 6.4 31.5c.1 1.5 .6 2.4 1.9 3.2c5.6 3.5 9.3 8.8 10.6 15.1c1.6 8-1 15.2-6.9 20.9c-13.4 13-35.8 6.8-40.4-11.2c-2.2-8.8 .6-16.4 7.2-22.6c1-1 1.4-1.9 1.3-3.3c-1.6-22.7-10-42.6-24.9-59.7c-0.2-0.2-0.5-0.5-0.7-0.7c-0.1-0.1-0.3-0.1-0.5-0.2c-0.7 .5-0.4 1.2-0.4 1.8c-0.1 18.7-0.2 37.3-0.1 56c.2 29.6-9.8 55.6-27.9 78.6c-16.2 20.7-36.8 36-60.2 47.6c-9.9 4.9-20.1 8.9-30.6 12.2c-1.9 .6-2.3 1.3-1.5 3.2c6.8 16.3-2.4 33.2-19.9 36.7c-0.8 .2-1.6 .4-2.4 .7c-6-0.4-12-0.3-18 0c-4.7-0.3-9.4-0.3-14.1 0c-6.1-0.3-12.3-0.3-18.4 0c-4.7-0.4-9.4-0.3-14.1 0c-6-0.5-12-0.6-18-0.1Zm36.5-292.4c0 0 0 0 0 0c16.2 0 32.5-0.1 48.7 0c10.9 .1 21.6-0.9 32.2-3.5c13.7-3.4 26.5-8.9 37.1-18.5c9.1-8.2 14.1-18.2 14-30.8c-0.3-20.1-0.1-40.1-0.1-60.2c0-7.3-2-13.9-6.1-20c-7.1-10.4-17.2-17-28.5-22c-14.7-6.4-30.3-9-46.2-9c-33.2 0-66.3 0-99.5 0c-10.4 0-20.8 .7-31 3.1c-13.9 3.3-27 8.6-37.9 18.2c-9.7 8.5-15.1 18.8-14.8 32.1c.3 19.9 .1 39.8 .1 59.7c0 6.9 1.9 13.1 5.5 18.9c5.6 8.8 13.6 15 22.7 19.8c16 8.4 33.3 11.9 51.3 12c17.6 .3 35 .2 52.5 .2Zm6 203.3c29.2 0 58.3-0.1 87.5 0c14.8 .1 25.8-11.1 25.6-25.4c-0.4-23.3-0.1-46.6-0.1-70c0-14-10.5-24.5-24.5-24.5c-58.9 0-117.8 0-176.7 0c-14 0-24.5 10.6-24.5 24.5c0 23.6 0 47.1 0 70.7c0 2.3 .2 4.5 .8 6.7c3 10.9 12.4 17.8 24.2 17.9c29.2 .1 58.4 .1 87.7 .1Zm-97.4-158.5c.1-1.7-0.2-3.5-1.3-5.1c-4.1-6.6-13.4-6.7-17.7-0.1c-0.9 1.4-1.3 2-2.4 .1c-2.3-3.8-5.9-5.4-10.1-4.9c-4 .5-7.2 2.7-8.5 6.7c-1.3 4.1-0.6 7.7 2.8 10.6c5.3 4.7 10.5 9.4 15.7 14.2c1.1 1 1.8 .7 2.7-0.2c5-4.5 10-9 15.1-13.4c2.4-2.1 3.9-4.6 3.7-7.9Zm187 6.3c0-7.1-5.8-12.9-13.1-12.9c-7.2-0.1-13.3 5.8-13.3 12.7c0 7.1 6 13 13.3 13.1c7.1 0 13-5.8 13.1-12.9Zm36.4-0.1c0-7.1-6-12.8-13.3-12.8c-7.2 0-13.2 5.9-13.1 12.9c0 7.1 6 12.8 13.3 12.8c7.3 0 13.1-5.8 13.1-12.9Zm8.5 .2c0 7.1 5.8 12.7 13.2 12.8c6.7 .1 13.3-6.2 13.3-12.7c0-7.1-6.1-13.2-13.3-13.1c-7.4 0-13.2 5.7-13.2 13Z" fill="#4e4d4c"/><path class="st3" d="M331 298.7c-17.5 0-35 .1-52.5 0c-18-0.1-35.2-3.6-51.3-12c-9.1-4.8-17.1-11-22.7-19.8c-3.7-5.8-5.5-12-5.5-18.9c0-19.9 .3-39.8-0.1-59.7c-0.2-13.3 5.1-23.7 14.8-32.1c10.9-9.5 23.9-14.9 37.9-18.2c10.2-2.4 20.5-3.2 31-3.1c33.2 0 66.3 0 99.5 0c16 0 31.5 2.6 46.2 9c11.3 4.9 21.4 11.5 28.5 22c4.1 6 6.2 12.7 6.1 20c0 20.1-0.2 40.2 .1 60.2c.2 12.6-4.9 22.5-14 30.8c-10.6 9.6-23.4 15.1-37.1 18.5c-10.6 2.6-21.3 3.6-32.2 3.5c-16.2-0.2-32.4-0.2-48.7-0.2c0 0 0 0 0 0Zm82.4-86.5c-15.4 0-27.5 11.8-27.5 26.7c0 14.9 12.2 26.8 27.5 26.8c15.2 0 27.6-12 27.6-26.8c0-14.8-12.3-26.7-27.6-26.7Zm-167.7 0c-15.4 0-27.7 11.7-27.7 26.5c0 14.9 12.2 26.9 27.4 27c15.3 0 27.7-11.8 27.7-26.6c0-14.9-12.2-26.8-27.4-26.9Zm83.4 66.3c15.7-0.1 33.4-1.1 51-3.5c2-0.3 2-1.2 1.8-2.6c-0.2-1.5-0.7-2.1-2.4-1.9c-20.5 2.9-41.1 4-61.8 3.4c-12.5-0.3-25-1-37.4-2.4c-1.9-0.2-2.5 .4-2.7 2.2c-0.2 1.9 .8 2.2 2.3 2.4c15.7 1.4 31.4 2.4 49.2 2.4Z" fill="#f6fbfd"/><path class="st4" d="M337 502c-29.2 0-58.5 0-87.7 0c-11.8 0-21.2-7-24.2-17.9c-0.6-2.2-0.8-4.4-0.8-6.7c0-23.6 0-47.1 0-70.7c0-14 10.5-24.5 24.5-24.5c58.9 0 117.8 0 176.7 0c14 0 24.5 10.5 24.5 24.5c0 23.3-0.3 46.6 .1 70c.2 14.3-10.8 25.4-25.6 25.4c-29.2-0.2-58.4-0.1-87.5-0.1Zm-54-71.8c-0.6 .1-1 .5-1 1c-0.1 3.6-0.6 7.2 .3 10.8c.2 .3 .5 .5 .7 .8c0 .5 .1 .9 .1 1.4c-0.2 .2-0.5 .5-0.7 .7c-0.7 3.8-0.9 7.7 .1 11.5c1.1 1 1.8 2.8 3.6 2.8c5 .1 9.9 0 14.9 0c.8 0 1.4-0.5 1.8-1.2c.4-0.8-0.3-1.2-0.8-1.5c-2.5-0.9-4.9-1.2-7.3 .1c-0.8 .7-1.5 .7-2.3 0c-2.1-1.5-4.5-0.3-6.7-0.8c-0.1-3.4-0.2-6.8-0.3-10.1c.3-0.6 .1-1-0.5-1.1c0-0.2-0.1-0.3-0.3-0.3c0-0.5 .1-1.1 .1-1.6c1.1-0.4 .9-1.4 .9-2.3c0-2.3 0-4.6 0-7c0-0.9 0-1.8 .8-2.5c2.1-0.3 4.3 .8 6.3-0.7c.5 0 1.1 0 1.6-0.1c2.2 1.7 4.6 .6 6.9 .8c1.1 .2 1.7-0.7 1.7-1.4c0-0.8-0.7-1.6-1.8-1.5c-2.7 0-5.4-0.2-8.1-0.1c-2.6 .1-5.2-0.5-7.8 .4c-1.1 .3-1.7 1-2.2 1.9Zm38.1 11.9c-1.7-1.2-5.7-1.2-7 .1c-2.6 1.9-3.4 4.5-2.9 7.6c.1 .7 .1 1.5 0 2.2c-0.6 3.3 .8 5.6 3.4 7.3c.2 .9 .8 .9 1.5 .9c4.3 0 8.6 0 13 0c.7 0 1.4 0 1.5-0.9c1.5-1.5 3.7-2.5 3.4-5.3c-0.5-4.2 1.6-9.1-3.3-12c-2.2-1.2-4.4-1.3-6.5 0c-0.1 .2-0.2 .2-0.4 .2c-0.7 0-1.4 0-2.2 0c-0.3 .1-0.5 .1-0.5-0.1Zm18.9-10.8c0 2.9 .2 5.8 0 8.7c-0.1 1.6 1.7 2.9 1.1 3.8c-2 3.4-0.5 7-1.1 10.5c-0.2 1.2 .3 2.1 1 3c0 .4 .1 .8 .6 .9c.7 .1 .8-0.4 .9-0.9c.6-0.8 .9-1.7 .9-2.7c-0.1-2.4 .1-4.8-0.1-7.2c-0.1-1.7 .5-2.1 2.1-2.1c1.6 0 3.3 .5 4.8-0.5c1.6-1 2.4-0.5 2.7 1.4c.1 .8 .1 1.7 .1 2.5c-0.1 .8-0.1 1.6 1 1.6c1.1 1.7 2.3 3.4 3.4 5.2c.4 .6 .9 .8 1.5 .7c.8-0.1 .6-0.8 .7-1.4c.1-1 0-2-0.6-2.8c-0.8-1.2-1.6-2.5-2.4-3.8c-1.7-2.7-1.7-2.7 1.4-2.8c1.6-0.1 4.8-2.2 4.8-3.7c0-3.7 .6-7.4-0.4-11.1c.1-1.2-0.5-1.7-1.6-1.6c-1-0.8-2.1-1.1-3.4-1.1c-3.1 .1-6.3 .2-9.4 0c-2.9-0.2-5.4 .2-7.3 2.5c-0.6 0-1.4-0.1-0.7 .9Zm40.4 28c2.5 0 5 0 7.5 0c1 0 1.9-0.6 2-1.5c0-0.9-1-1.7-1.9-1.6c-2.3 .2-4.8-1-6.9 .9c-0.2 .2-0.8 .2-0.9 .1c-1.7-1.8-3.9-1-5.9-1.1c-1.2-0.1-1.9-0.2-1.8-1.6c.1-2.6 .1-5.2 0-7.7c0-1 .3-1.5 1.4-1.5c2.2-0.1 4.5 .8 6.4-1.2c.1-0.1 .5 0 .7 .1c1.8 1.8 4.1 .8 6.2 1.1c1.3 .1 2.7-0.3 2.7-1.6c0-1.5-1.6-1.4-2.8-1.7c-3-0.8-5.9 1.9-9 .2c-1.5-0.8-4.3 .9-5.3-0.7c-0.8-1.4-0.2-3.7-0.2-5.6c0-1.2 0-2.3 0-3.5c0-0.8 .3-1.1 1.2-1.2c2.2-0.2 4.7 .8 6.6-1.1c.1-0.1 .5 .1 .7 .2c1.8 1.7 4 .7 6 1c1.3 .2 2.9-0.1 2.9-1.6c0-1.4-1.6-1.6-2.9-1.6c-4 0-8 0-12 0c-3.7 0-5.8 2.1-5.8 5.8c0 2.2 0 4.5 0 6.7c0 .7-0.1 1.6 .5 2.1c.9 .8 .9 1.5 0 2.3c-0.7 .6-0.5 1.4-0.5 2.1c0 2.2 0 4.3 0 6.5c0 4.1 1.9 6 6 6c1.6-0.3 3.3-0.3 5.1-0.3Z" fill="#f4fcfd"/><path class="st5" d="M239.6 343.5c.1 3.4-1.3 5.8-3.7 7.9c-5.1 4.4-10.1 8.9-15.1 13.4c-0.9 .8-1.6 1.2-2.7 .2c-5.2-4.8-10.5-9.5-15.7-14.2c-3.3-3-4.1-6.6-2.8-10.6c1.3-4.1 4.5-6.2 8.5-6.7c4.3-0.5 7.9 1.1 10.1 4.9c1.1 1.9 1.5 1.3 2.4-0.1c4.3-6.6 13.6-6.5 17.7 .1c1.1 1.6 1.4 3.3 1.3 5.1Z" fill="#e41b09"/><path class="st5" d="M426.6 349.8c0 7.1-6 12.9-13.1 12.9c-7.3 0-13.3-6-13.3-13.1c0-6.9 6.2-12.8 13.3-12.7c7.2 0 13.1 5.8 13.1 12.9Z" fill="#e41b09"/><path class="st6" d="M463 349.7c0 7.1-5.8 12.8-13.1 12.9c-7.3 .1-13.2-5.7-13.3-12.8c0-7.1 5.9-12.9 13.1-12.9c7.3 0 13.3 5.7 13.3 12.8Z" fill="#f9d616"/><path class="st7" d="M471.5 349.9c0-7.2 5.8-13 13.2-13c7.1 0 13.2 6 13.3 13.1c0 6.5-6.6 12.8-13.3 12.7c-7.4-0.1-13.2-5.8-13.2-12.8Z" fill="#07aa04"/><path class="st9" d="M413.4 212.2c15.3 0 27.6 11.9 27.6 26.7c0 14.8-12.3 26.8-27.6 26.8c-15.2 0-27.5-11.9-27.5-26.8c0-14.9 12.1-26.7 27.5-26.7Z" fill="#4f4e4c"/><path class="st9" d="M245.7 212.2c15.3 0 27.5 12 27.4 26.9c-0.1 14.8-12.4 26.7-27.7 26.6c-15.2 0-27.4-12.1-27.4-27c0-14.7 12.3-26.5 27.7-26.5Z" fill="#4f4e4c"/><path class="st10" d="M329.1 278.5c-17.8 0-33.5-1-49.2-2.5c-1.5-0.1-2.5-0.4-2.3-2.4c.2-1.8 .8-2.4 2.7-2.2c12.4 1.4 24.9 2.1 37.4 2.4c20.7 .5 41.3-0.5 61.8-3.4c1.7-0.2 2.2 .3 2.4 1.9c.2 1.5 .2 2.4-1.8 2.6c-17.6 2.6-35.3 3.6-51 3.6Z" fill="#585756"/><path class="st11" d="M353.1 448.6c0-0.8 0-1.7-0.1-2.5c-0.2-1.9-1.1-2.4-2.7-1.4c-1.6 1-3.2 .5-4.8 .5c-1.6 0-2.2 .5-2.1 2.1c.1 2.4 0 4.8 .1 7.2c0 1.1-0.3 1.9-0.9 2.7c-0.5 0-1 0-1.5 0c-0.7-0.9-1.1-1.8-1-3c.5-3.5-1-7 1.1-10.5c.5-0.9-1.2-2.2-1.1-3.8c.2-2.9 0-5.8 0-8.7c.2-0.3 .4-0.6 .6-0.9c1.9-2.3 4.5-2.7 7.3-2.5c3.1 .2 6.3 .1 9.4 0c1.3 0 2.4 .2 3.4 1.1c.3 .8 .9 1.3 1.6 1.6c.9 3.7 .4 7.4 .4 11.1c0 1.5-3.1 3.6-4.8 3.7c-3.1 .1-3.1 .1-1.4 2.8c.8 1.3 1.5 2.6 2.4 3.8c.6 .9 .7 1.8 .6 2.8c0 .6 .1 1.3-0.7 1.4c-0.6 .1-1.1-0.1-1.5-0.7c-1.1-1.7-2.3-3.5-3.4-5.2c0-0.6-0.4-1.1-0.9-1.6Zm6.5-12.1c0-5.3 0-5-5.1-5.7c-2.1-0.3-4-0.2-6 0c-5 .5-5 .3-5 5.5c0 .2 0 .3 0 .5c0 5 0 4.8 5 5.3c2.1 .2 4 .3 6.1 0c5-0.6 5.1-0.3 5.1-5.4c-0.1 0-0.1-0.1-0.1-0.2Z" fill="#171818"/><path class="st11" d="M380.4 459.3c-1.7 0-3.5 0-5.2 0c-4.2 0-6-1.9-6-6c0-2.2 0-4.3 0-6.5c0-0.7-0.2-1.5 .5-2.1c.9-0.8 .9-1.5 0-2.3c-0.6-0.6-0.5-1.4-0.5-2.1c0-2.2 0-4.5 0-6.7c0-3.7 2.1-5.8 5.8-5.8c4 0 8 0 12 0c1.4 0 2.9 .3 2.9 1.6c0 1.5-1.6 1.7-2.9 1.6c-2-0.2-4.2 .7-6-1c-0.2-0.1-0.6-0.3-0.7-0.2c-1.9 2-4.4 .9-6.6 1.1c-0.9 .1-1.2 .4-1.2 1.2c0 1.2 0 2.3 0 3.5c0 1.9-0.6 4.2 .2 5.6c1 1.7 3.7-0.1 5.3 .7c3.1 1.7 6-0.9 9-0.2c1.2 .3 2.8 .2 2.8 1.7c0 1.2-1.4 1.7-2.7 1.6c-2.1-0.2-4.4 .8-6.2-1.1c-0.1-0.1-0.6-0.2-0.7-0.1c-1.8 2-4.2 1-6.4 1.2c-1.1 .1-1.4 .5-1.4 1.5c0 2.6 .1 5.2 0 7.7c-0.1 1.5 .6 1.6 1.8 1.6c2 .1 4.2-0.7 5.9 1.1c.1 .1 .7 .1 .9-0.1c2.1-1.9 4.6-0.7 6.9-0.9c.9-0.1 1.9 .7 1.9 1.6c0 .9-0.9 1.5-2 1.5c-2.4 .3-4.9 .3-7.4 .3Z" fill="#171818"/><path class="st11" d="M314.5 459.4c-2.6-1.7-4-4.1-3.4-7.3c.1-0.7 .1-1.5 0-2.2c-0.5-3.1 .3-5.7 2.9-7.6c2.3 0 4.7-0.1 7-0.1c.1 .2 .2 .2 .4 .2c.7 1.4 1.4 1.4 2.2 0c.2 0 .3-0.1 .4-0.2c2.2 0 4.4 0 6.5 0c4.9 3 2.8 7.8 3.3 12c.3 2.8-1.9 3.8-3.4 5.3c-5.2-0.1-10.5-0.1-15.9-0.1Zm16-8.6c0-1.3 0-2.7 0-4c0-0.7 .1-1.4-0.9-1.5c-2.4-0.3-5 .7-7.1-1.3c-0.1-0.1-0.3 0-0.4 .2c-1.6 1.7-3.7 1.1-5.7 1.1c-1.7 0-2.2 .6-2.1 2.2c.1 2.2 .1 4.5 0 6.7c-0.1 1.5 .5 2 2 2.1c1.9 0 4-0.6 5.7 1c.4 .4 .9 .1 1.3-0.3c.6-0.7 1.5-0.7 2.3-0.7c4.8-0.2 4.8-0.2 4.8-5.1c.2-0.2 .2-0.3 .1-0.4Z" fill="#171818"/><path class="st11" d="M285.2 445.8c.1 3.4 .2 6.8 .3 10.1c.3 1 1.1 .8 1.8 .8c1.6 0 3.3 0 4.9 0c.8 .7 1.5 .8 2.3 0c2.4 0 4.9-0.1 7.3-0.1c.5 .4 1.2 .7 .8 1.5c-0.4 .7-0.9 1.2-1.8 1.2c-5 0-9.9 .1-14.9 0c-1.7 0-2.4-1.8-3.6-2.8c.1-3.8 .3-7.7-0.1-11.5c.2-0.2 .5-0.5 .7-0.7c.4 0 .9 0 1.3 .1c.2 .1 .2 .2 .3 .3c.1 .4 .2 .8 .7 1.1Z" fill="#171818"/><path d="M301 430.9c-2.3-0.2-4.8 .9-6.9-0.8c0-0.5-0.3-0.8-0.7-0.8c-0.6 0-0.9 .3-0.9 .9c-1.9 1.6-4.2 .5-6.3 .7c-1.9-0.4-1.5 1.1-1.6 2c-0.1 3.2-0.1 6.5-0.2 9.7c-0.5 0-1 .1-1.5 .1c-0.2-0.3-0.5-0.5-0.7-0.8c.4-0.9 .2-2 .3-2.9c.2-3-0.4-6 .4-8.9c1.1-0.2 1.8-0.8 2.1-1.9c2.6-0.9 5.2-0.3 7.8-0.4c2.7-0.1 5.4 .1 8.1 .1c.8 1.1 1.1 2 .1 3Z"/><path class="st12" d="M314.5 459.4c5.3 0 10.7 0 16 0c-0.1 .9-0.8 .9-1.5 .9c-4.3 0-8.6 0-13 0c-0.6 0-1.3 0-1.5-0.9Z" fill="#e3eaeb"/><path class="st1" d="M284.5 442.7c.1-3.2 .1-6.5 .2-9.7c0-1-0.3-2.4 1.6-2c-0.8 .6-0.8 1.6-0.8 2.5c0 2.3 0 4.6 0 7c-0.1 .8 .1 1.8-1 2.2Z" fill="#4e4d4c"/><path class="st1" d="M283 430.2c-0.8 2.9-0.3 5.9-0.4 8.9c-0.1 1 .2 2-0.3 2.9c-0.9-3.6-0.4-7.2-0.3-10.8c0-0.5 .4-0.9 1-1Z" fill="#4e4d4c"/><path class="st1" d="M282.3 445c.4 3.8 .2 7.7 .1 11.5c-0.9-3.9-0.8-7.7-0.1-11.5Z" fill="#4e4d4c"/><path class="st12" d="M321.1 442.1c-2.3 0-4.7 .1-7 .1c1.3-1.3 5.3-1.4 7-0.1Z" fill="#e3eaeb"/><path class="st1" d="M301.8 456.6c-2.4 0-4.9 .1-7.3 .1c2.4-1.3 4.8-1.1 7.3-0.1Z" fill="#4e4d4c"/><path class="st12" d="M330.6 442c-2.2 0-4.4 0-6.5 0c2.1-1.3 4.3-1.2 6.5 0Z" fill="#e3eaeb"/><path class="st1" d="M292.2 456.7c-1.6 0-3.3 0-4.9 0c-0.7 0-1.5 .2-1.8-0.8c2.2 .5 4.6-0.8 6.7 .8Z" fill="#4e4d4c"/><path class="st1" d="M301 430.9c1-1 .6-1.9-0.1-2.9c1.1-0.1 1.8 .6 1.8 1.5c.1 .7-0.5 1.6-1.7 1.4Z" fill="#4e4d4c"/><path class="st1" d="M285.1 428.3c-0.2 1.1-0.9 1.8-2.1 1.9c.5-0.9 1.1-1.6 2.1-1.9Z" fill="#4e4d4c"/><path class="st1" d="M283 442.8c.5 0 1-0.1 1.5-0.1c0 .5-0.1 1.1-0.1 1.6c-0.4 0-0.9 0-1.3-0.1c-0.1-0.4-0.1-0.9-0.1-1.4Z" fill="#4e4d4c"/><path class="st12" d="M362.5 430.4c-0.7-0.3-1.3-0.8-1.6-1.6c1.1 0 1.6 .5 1.6 1.6Z" fill="#e3eaeb"/><path class="st12" d="M341 457.3c.5 0 1 0 1.5 0c-0.1 .5-0.2 1-0.9 .9c-0.4-0.1-0.5-0.5-0.6-0.9Z" fill="#e3eaeb"/><path class="st12" d="M323.6 442.3c-0.7 1.4-1.4 1.4-2.2 0c.8 0 1.5 0 2.2 0Z" fill="#e3eaeb"/><path class="st1" d="M292.5 430.2c0-0.6 .3-0.9 .9-0.9c.5 0 .7 .3 .7 .8c-0.5 .1-1 .1-1.6 .1Z" fill="#4e4d4c"/><path class="st12" d="M353.1 448.6c.5 .4 .9 .9 1 1.6c-1.1 0-1.1-0.8-1-1.6Z" fill="#e3eaeb"/><path class="st1" d="M285.2 445.8c-0.5-0.2-0.5-0.7-0.5-1.1c.6 .1 .8 .5 .5 1.1Z" fill="#4e4d4c"/><path class="st12" d="M340.7 430.3c-0.2 .3-0.4 .6-0.6 .9c-0.8-0.9 0-0.8 .6-0.9Z" fill="#e3eaeb"/><path class="st12" d="M359.6 436.5c0 .1 0 .2 0 .2c0 5.1 0 4.8-5.1 5.4c-2.1 .3-4 .2-6.1 0c-5-0.5-5-0.3-5-5.3c0-0.2 0-0.3 0-0.5c0-5.2 0-5 5-5.5c2.1-0.2 3.9-0.3 6 0c5.1 .8 5.2 .5 5.2 5.7Z" fill="#e3eaeb"/><path class="st12" d="M330.5 450.8c0 .1 0 .2 0 .2c0 4.9 0 4.9-4.8 5.1c-0.8 0-1.7 .1-2.3 .7c-0.4 .4-0.9 .7-1.3 .3c-1.7-1.6-3.8-1-5.7-1c-1.5 0-2.1-0.6-2-2.1c.1-2.2 .1-4.5 0-6.7c-0.1-1.6 .4-2.2 2.1-2.2c1.9 0 4 .6 5.7-1.1c.1-0.1 .4-0.2 .4-0.2c2.1 2.1 4.7 1 7.1 1.3c.9 .1 .9 .9 .9 1.5c0 1.5-0.1 2.9-0.1 4.2Z" fill="#e3eaeb"/><path class="st2" d="M294.5 591.1c6-0.5 12-0.4 18-0.1c.2 1 1 1.5 1.7 2.1c6.5 6.4 13.1 12.7 19.6 19.2c1.5 1.5 2.5 1.6 4 0c4.4-4.4 8.7-8.9 13.4-13.1c2.8-2.5 5.7-5 7.9-8.2c6-0.3 12-0.4 18 0c-2.7 4.9-6.9 8.5-10.8 12.4c-9.7 9.6-19.6 19-29.3 28.6c-0.9 .9-1.4 1-2.3 0c-11.3-11.2-22.7-22.2-34.1-33.4c-2.4-2.2-4.4-4.7-6.1-7.5Z" fill="#e61e0b" transform="translate(335.8,611.7) translate(-335.8,-611.7)" style="animation: .8s linear infinite both zcbeahmsp1gq12qyetcr1ecn_t, .8s linear infinite both zcbeahmsp1gq12qyetcr1ecn_d;"/><path class="st8" d="M359.1 591c-2.2 3.2-5.1 5.7-7.9 8.2c-4.7 4.2-9 8.7-13.4 13.1c-1.6 1.6-2.5 1.5-4 0c-6.5-6.5-13.1-12.8-19.6-19.2c-0.6-0.6-1.5-1.1-1.7-2.1c4.7-0.3 9.4-0.3 14.1 0c2.3 3.4 5.6 5.8 8.3 8.7c.5 .6 1.2 .6 1.8 0c2.8-2.9 6-5.4 8.3-8.7c4.7-0.3 9.4-0.3 14.1 0Z" fill="#e6790b" transform="translate(335.8,602.1) translate(-335.8,-602.1)" style="animation: .8s linear infinite both abvv0ae2tbm8bu3cex0qomqn_t, .8s linear infinite both abvv0ae2tbm8bu3cex0qomqn_d;"/><path class="st6" d="M345 591c-2.3 3.4-5.6 5.8-8.3 8.7c-0.5 .6-1.2 .6-1.8 0c-2.8-2.9-6-5.4-8.3-8.7c6.1-0.2 12.3-0.2 18.4 0Z" fill="#f9d616" style="animation: .8s linear infinite both ar2cuwok667k16kypqyr0whj_d;"/></g></g><g transform="translate(326.8,139) translate(-186,-116.7)" style="animation: .8s linear infinite both wiu2e031vz5t4s374tmfcuih_t;"><g><path class="st0" d="M96.4 39.3l5.7-14.8l30.8-9.5l12-12.3l82.1-0.1l12 12.4l30.7 9.4l5.7 14.8l14.2 36.1l-58.5 90.9l-109.1 5.9Z" fill="#070707"/><path class="st1" d="M96.4 38.2c7.7 12.6 15.2 24.9 22.7 37.2c.5-0.2 1-0.3 1.5-0.5c-6.1-16.8-12.1-33.6-18.4-51.1c9.9-2.9 20.1-6 30.7-9.2c5 45.4 10.3 90 17.8 134.4c.5 0 1 0 1.5 0c-2.4-48.7-4.8-97.3-7.3-146.4c27.1-3.4 54.7-3.4 82.1 0c-2.4 49-4.9 97.6-7.3 146.3c.5 0 1 .1 1.5 .1c1.7-11 3.5-22 5.1-33c1.6-11.2 3.2-22.4 4.6-33.6c1.5-11.2 2.8-22.3 4.1-33.4c1.3-11.2 2.6-22.4 4-34.4c10.5 3.2 20.7 6.2 30.8 9.2c-6.3 17.5-12.4 34.3-18.5 51.1c.5 .2 1 .3 1.5 .5c7.5-12.3 15-24.6 22.7-37.3c4 2.4 8.1 4.7 11.9 7.2c28.5 18.7 46.5 42.9 55.9 71.1c3.4 10.4 4.9 21.2 7.4 31.7c.3 1.5 1.2 2.9 2.3 4.1c4.7 5.5 10.3 10.7 14.2 16.5c8.4 12.7 5.8 22.8-7.8 32.3c-10.9 7.8-24 12.5-37.6 16.4c-27.6 8-56.3 11.8-85.4 14c-31.2 2.4-62.4 2.6-93.6 .6c-34.3-2.2-68.1-6.5-100.2-16.9c-12.3-4-24.1-8.9-33.5-16.7c-9.2-7.7-11.5-16.4-6.5-26.3c3.8-7.3 9.6-13.5 15.8-19.5c1.4-1.4 2.6-3.3 2.8-5c3.9-29.5 14.7-56.8 37.3-80.7c10.5-11.2 23.1-20.8 37.9-28.7Zm253.1 129.2c-5.2 3.2-9.8 6.4-15 8.9c-16.5 8.2-35 12-53.9 14.9c-22.2 3.5-44.7 5-67.2 5.5c-42.3 1-84.5 .5-126.1-6.1c-17.4-2.8-34.4-6.6-49.7-14.1c-5.2-2.6-9.9-5.9-14.9-8.8c-0.2 .1-0.4 .3-0.7 .4c4.2 3.5 8.1 7.2 12.7 10.2c13.9 9.3 30.4 14.6 47.6 18.6c22 5.2 44.5 7.8 67.3 9c45.4 2.3 90.5 1.3 134.8-7.9c17.1-3.5 33.6-8.6 48.2-16.8c6.6-3.7 12.6-8 16.9-13.8Z" fill="#f9d615"/><path class="st0" d="M349.5 167.4c-4.3 5.8-10.3 10.1-16.8 13.8c-14.7 8.2-31.1 13.3-48.3 16.8c-44.3 9.2-89.4 10.2-134.8 7.9c-22.8-1.2-45.3-3.9-67.3-9c-17.1-4.1-33.6-9.3-47.6-18.6c-4.6-3-8.4-6.8-12.6-10.2c.2-0.1 .4-0.3 .7-0.5c4.9 3 9.6 6.3 14.9 8.9c15.2 7.5 32.2 11.3 49.6 14.1c41.7 6.6 83.9 7 126.1 6.1c22.6-0.6 45.1-2.1 67.3-5.5c18.8-2.9 37.3-6.7 53.9-14.9c5.1-2.5 9.7-5.7 14.9-8.9Z" fill="#fff"/></g></g><g transform="translate(329,374.2) translate(-188,-354.7)" style="animation: .8s linear infinite both txiz579m25k480q2f06kfoox_t;"><g><path d="M52 320.6c3.8 0 7.5 .1 11.2 0c14.3-0.2 28.4-1.1 42-3.2c7.6-1.2 14.1-3.3 20.5-5.5c9.4-3.3 18.7-6.7 28.4-9.9c8.2-2.6 17.3-4.5 27.2-5.3c11.8-1 23 .2 33.7 2.6c9.8 2.3 18.5 5.4 27.1 8.6c4.7 1.7 9.5 3.4 14.2 5.1c8.9 3.1 18.9 4.8 29.4 5.9c12.4 1.3 25 1.7 37.6 1.8c.1 0 .2 0 .3 0c3.7 0-13.1 63.1-16.4 63.7c-0.5 .1-1.1 .3-1.4 .5c-12.1 9.1-29.8 15.1-49.5 19.9c-19 4.6-39.3 7.1-60.4 8.1c-9 .4-17.8-0.2-26.7-0.9c-22-1.8-42.6-5.4-61.4-11.2c-10.9-3.3-21-7.1-29-12.1c-1.7-1-3.2-2.1-4.7-3.2c-1.3-0.9-22.2-64.2-22.1-64.9Zm4.8 15.5c.5 0 .9 0 1.3 0c10.2 0 20.4-0.5 30.6-1.3c12.6-0.9 24.5-2.9 35-6.6c6-2.2 11.9-4.4 17.9-6.6c8.3-3.1 17.1-5.8 26.9-7.8c10.2-2 20.7-2.6 31.4-1.5c9.8 1 18.7 3.1 26.8 5.9c8 2.7 15.8 5.5 23.5 8.4c10.1 3.7 21 6.6 33.7 7.7c9.4 .7 19 1.2 28.6 1.8c3 .2 6 0 8.9 0c.5-1.9 .2-2.1-3.5-2.2c-0.2 0-0.5 0-0.7 0c-9.5 0-18.9-0.6-28.3-1.3c-12.3-1-23.8-2.9-34-6.5c-5.6-2-11.2-4-16.6-6c-8.6-3.3-17.4-6.2-27.4-8.2c-11.2-2.4-22.6-3-34.5-1.5c-8.5 1-16.2 2.9-23.4 5.3c-7.7 2.5-15.1 5.3-22.7 8c-6 2.1-12 4.3-18.9 5.8c-11.4 2.5-23.7 3.4-36 4c-5 .3-10.1 .3-15.2 .4c-3.7 .1-3.9 .3-3.4 2.2Zm130.9 48c13.5 .2 27.9-0.6 42.1-2c19.1-1.9 37.4-5 54.1-10c4.7-1.4 9.1-3.1 13.6-4.6c1.3-0.4 1-0.9 .5-1.4c-0.6-0.5-1.6-0.3-2.4-0.1c-1.1 .3-2.2 .7-3.2 1.1c-5.6 1.7-10.9 3.6-16.7 5.1c-16.2 4.4-33.8 7-52.1 8.6c-9.7 .9-19.4 1.5-29.4 1.3c-7.6-0.1-15.3 0-23 0c-0.5 0-1 0-1.5 0c-11.6-0.7-23.1-1.5-34.3-3c-16.6-2.2-32.2-5.3-45.6-10.7c-0.2 0-0.4-0.1-0.7-0.2c-0.8-0.3-1.8-0.3-2.3 .1c-0.3 .3-0.3 .8 0 1c1 .6 2.2 1.1 3.4 1.6c8.5 3.2 18 5.6 28.2 7.5c22 4 44.9 5.7 69.3 5.7Zm84.6-31c7.4 .2 16.9-0.6 26.4-1.1c.5 0 1-0.1 1.4-0.2c1.4-0.4 1.4-1.2-0.1-1.5c-0.6-0.1-1.4-0.1-2.1-0.1c-7.9 .6-15.8 .9-23.7 1c-9.5 .1-18.9 0-28.1-1.1c-9.8-1.1-19.5-2.2-29.3-3.3c-4.8-0.5-9.5-1.1-14.3-1.2c-7.5-0.3-15-0.2-22.6-0.2c-2.3 0-4.8-0.2-7 .1c-6 .5-12 1.1-17.9 1.8c-7.2 .8-14.3 1.9-21.5 2.6c-12.2 1.2-24.6 1.3-37.1 1c-4.4-0.1-8.7-0.3-13.1-0.5c-1 0-1.9 .1-2.1 .7c-0.2 .5 .4 .9 1.5 1.1c.7 .1 1.4 .1 2.2 .2c8.4 .3 16.8 .6 25.3 .4c5-0.2 10.1-0.1 15.1-0.3c9.2-0.5 18.1-1.8 27-3c8.7-1.2 17.5-2.1 26.6-2.4c15.4-0.3 30.6 .4 45.5 2.4c14.9 2.1 30 3.5 47.9 3.6Z"/><path class="st0" d="M56.8 336.1c-0.5-1.9-0.3-2.1 3.4-2.2c5.1-0.1 10.2-0.1 15.2-0.4c12.4-0.6 24.6-1.5 36-4c6.9-1.5 12.9-3.7 18.9-5.9c7.6-2.6 15-5.4 22.7-8c7.2-2.3 14.9-4.2 23.4-5.3c11.9-1.4 23.3-0.8 34.5 1.5c10 2.1 18.9 5 27.4 8.2c5.4 2.1 11 4.1 16.6 6.1c10.2 3.6 21.7 5.5 34.1 6.5c9.3 .7 18.7 1.2 28.2 1.3c.2 0 .5 0 .7 0c3.7 .1 4 .3 3.6 2.2c-3 0-6 .1-9 0c-9.6-0.6-19.1-1.1-28.6-1.9c-12.7-1-23.6-3.9-33.7-7.7c-7.7-2.8-15.5-5.6-23.4-8.3c-8.2-2.8-17.1-4.9-26.9-5.9c-10.7-1.1-21.2-0.6-31.4 1.5c-9.7 2-18.6 4.7-26.9 7.8c-6 2.2-11.9 4.4-17.9 6.5c-10.4 3.8-22.4 5.7-35 6.7c-10.1 .8-20.3 1.3-30.6 1.3c-0.4 0-0.8 0-1.3 0Z" fill="#fff"/><path class="st0" d="M187.7 384.1c-24.4 0-47.3-1.7-69.3-5.7c-10.1-1.9-19.7-4.2-28.2-7.5c-1.2-0.4-2.4-1-3.3-1.6c-0.4-0.2-0.4-0.7-0.1-1c.5-0.4 1.5-0.4 2.4-0.1c.2 .1 .4 .2 .6 .2c13.4 5.4 29 8.5 45.6 10.7c11.2 1.5 22.8 2.3 34.3 3c.5 0 1 0 1.5 0c7.7 0 15.4-0.1 23 0c10 .2 19.7-0.4 29.5-1.3c18.2-1.6 35.8-4.2 52.1-8.6c5.7-1.5 11-3.4 16.6-5.1c1-0.4 2.1-0.8 3.2-1.1c.8-0.2 1.8-0.4 2.4 .1c.5 .5 .8 1-0.5 1.4c-4.5 1.5-8.9 3.2-13.6 4.6c-16.7 5-34.9 8.1-54.1 10c-14.2 1.4-28.6 2.2-42.1 2Z" fill="#fff"/><path class="st0" d="M272.2 353.1c-17.8-0.1-32.9-1.5-47.8-3.6c-14.9-2.1-30.2-2.7-45.6-2.4c-9 .2-17.8 1.2-26.6 2.4c-8.8 1.2-17.8 2.5-27 3c-5 .2-10 .1-15 .3c-8.5 .2-16.9-0.1-25.4-0.4c-0.7-0.1-1.4-0.1-2.1-0.2c-1.2-0.2-1.7-0.6-1.5-1.1c.2-0.6 1-0.7 2-0.7c4.4 .2 8.8 .4 13.2 .5c12.4 .3 24.9 .2 37.1-1c7.2-0.7 14.3-1.8 21.5-2.6c5.9-0.7 11.8-1.3 17.8-1.9c2.3-0.2 4.7 0 7.1 0c7.5 0 15-0.1 22.5 .1c4.8 .2 9.6 .8 14.3 1.3c9.8 1.1 19.5 2.2 29.3 3.3c9.3 1.1 18.7 1.2 28.1 1c8-0.1 15.9-0.3 23.8-0.9c.7-0.1 1.5 0 2.1 .1c1.4 .3 1.4 1 0 1.5c-0.4 .1-0.9 .2-1.4 .2c-9.5 .5-18.9 1.3-26.4 1.1Z" fill="#fff"/></g></g></svg>